<?xml version="1.0" encoding="UTF-8"?>
<!DOCTYPE svg PUBLIC "-//W3C//DTD SVG 1.1//EN" "http://www.w3.org/Graphics/SVG/1.1/DTD/svg11.dtd">
<svg xmlns="http://www.w3.org/2000/svg" version="1.1" width="512px" height="512px" style="shape-rendering:geometricPrecision; text-rendering:geometricPrecision; image-rendering:optimizeQuality; fill-rule:evenodd; clip-rule:evenodd" xmlns:xlink="http://www.w3.org/1999/xlink">
<g><path style="opacity:1" fill="#f23e31" d="M 9.5,-0.5 C 86.1667,-0.5 162.833,-0.5 239.5,-0.5C 239.5,79.5 239.5,159.5 239.5,239.5C 159.5,239.5 79.5,239.5 -0.5,239.5C -0.5,162.833 -0.5,86.1667 -0.5,9.5C 1.83333,5.16667 5.16667,1.83333 9.5,-0.5 Z"/></g>
<g><path style="opacity:1" fill="#4baf4a" d="M 271.5,-0.5 C 348.167,-0.5 424.833,-0.5 501.5,-0.5C 505.833,1.83333 509.167,5.16667 511.5,9.5C 511.5,86.1667 511.5,162.833 511.5,239.5C 431.5,239.5 351.5,239.5 271.5,239.5C 271.5,159.5 271.5,79.5 271.5,-0.5 Z"/></g>
<g><path style="opacity:1" fill="#1f95ed" d="M -0.5,271.5 C 79.5,271.5 159.5,271.5 239.5,271.5C 239.5,351.5 239.5,431.5 239.5,511.5C 162.833,511.5 86.1667,511.5 9.5,511.5C 5.16667,509.167 1.83333,505.833 -0.5,501.5C -0.5,424.833 -0.5,348.167 -0.5,271.5 Z"/></g>
<g><path style="opacity:1" fill="#f9bb05" d="M 511.5,271.5 C 511.5,348.167 511.5,424.833 511.5,501.5C 509.167,505.833 505.833,509.167 501.5,511.5C 424.833,511.5 348.167,511.5 271.5,511.5C 271.5,431.5 271.5,351.5 271.5,271.5C 351.5,271.5 431.5,271.5 511.5,271.5 Z"/></g>
</svg>
